<svg width="57" height="57" viewBox="0 0 57 57" fill="none" xmlns="http://www.w3.org/2000/svg">
<circle cx="28.6802" cy="28.1621" r="28.1098" fill="#002185"/>
<path d="M28.6837 19.3862C24.3589 19.3862 20.8705 22.8746 20.8705 27.1994C20.8705 31.5241 24.3589 35.0125 28.6837 35.0125C33.0084 35.0125 36.4968 31.5241 36.4968 27.1994C36.4968 22.8746 33.0084 19.3862 28.6837 19.3862ZM28.6837 32.2789C25.8889 32.2789 23.6041 30.001 23.6041 27.1994C23.6041 24.3978 25.8821 22.1198 28.6837 22.1198C31.4852 22.1198 33.7632 24.3978 33.7632 27.1994C33.7632 30.001 31.4784 32.2789 28.6837 32.2789ZM38.6388 19.0666C38.6388 20.0798 37.8228 20.889 36.8164 20.889C35.8032 20.889 34.994 20.073 34.994 19.0666C34.994 18.0603 35.81 17.2443 36.8164 17.2443C37.8228 17.2443 38.6388 18.0603 38.6388 19.0666ZM43.8135 20.9162C43.6979 18.475 43.1403 16.3127 41.3519 14.5311C39.5704 12.7495 37.408 12.1919 34.9668 12.0695C32.4508 11.9267 24.9097 11.9267 22.3937 12.0695C19.9593 12.1851 17.7969 12.7427 16.0086 14.5243C14.2202 16.3059 13.6694 18.4682 13.547 20.9094C13.4042 23.4254 13.4042 30.9665 13.547 33.4825C13.6626 35.9237 14.2202 38.0861 16.0086 39.8677C17.7969 41.6492 19.9525 42.2068 22.3937 42.3292C24.9097 42.472 32.4508 42.472 34.9668 42.3292C37.408 42.2136 39.5704 41.656 41.3519 39.8677C43.1335 38.0861 43.6911 35.9237 43.8135 33.4825C43.9563 30.9665 43.9563 23.4322 43.8135 20.9162ZM40.5632 36.1821C40.0328 37.5149 39.006 38.5417 37.6664 39.0789C35.6604 39.8745 30.9004 39.6909 28.6837 39.6909C26.4669 39.6909 21.7001 39.8677 19.7009 39.0789C18.3681 38.5485 17.3413 37.5217 16.8042 36.1821C16.0086 34.1761 16.1922 29.4162 16.1922 27.1994C16.1922 24.9826 16.0154 20.2158 16.8042 18.2166C17.3345 16.8839 18.3613 15.8571 19.7009 15.3199C21.7069 14.5243 26.4669 14.7079 28.6837 14.7079C30.9004 14.7079 35.6672 14.5311 37.6664 15.3199C38.9992 15.8503 40.026 16.8771 40.5632 18.2166C41.3587 20.2226 41.1751 24.9826 41.1751 27.1994C41.1751 29.4162 41.3587 34.1829 40.5632 36.1821Z" fill="white"/>
</svg>
